<svg xmlns="http://www.w3.org/2000/svg" xmlns:xlink="http://www.w3.org/1999/xlink" width="252.273" height="80" viewBox="0 0 252.273 80">
  <defs>
    <clipPath id="clip-path">
      <rect id="長方形_110" data-name="長方形 110" width="252.273" height="80" fill="#fff"/>
    </clipPath>
  </defs>
  <g id="グループ_49" data-name="グループ 49" transform="translate(0 0)">
    <g id="グループ_48" data-name="グループ 48" transform="translate(0 0)" clip-path="url(#clip-path)">
      <path id="パス_19" data-name="パス 19" d="M25.958,11.472a42.788,42.788,0,0,1-5.893,10.464,29.163,29.163,0,0,1-6.575,6.233,25.167,25.167,0,0,1-6.133,3.068A27.477,27.477,0,0,1,.58,32.321V.527H6.955v24.1a12.129,12.129,0,0,0,4.069-2.085,21.852,21.852,0,0,0,4.491-4.352,30.326,30.326,0,0,0,3.829-6.715Z" transform="translate(0.743 0.676)" fill="#fff"/>
      <path id="パス_20" data-name="パス 20" d="M12.335.862H24.843V7.116H12.335ZM38.995,7.6a36.43,36.43,0,0,1-5.371,11.947,30.025,30.025,0,0,1-7,7.116,26.559,26.559,0,0,1-6.876,3.549,25.5,25.5,0,0,1-5.312,1.222,20.642,20.642,0,0,1-2.1.141V25.036a12.472,12.472,0,0,0,1.642-.059,19.988,19.988,0,0,0,4.11-.821,16.932,16.932,0,0,0,5.273-2.767A24.954,24.954,0,0,0,28.471,16.2,30.531,30.531,0,0,0,32.62,7.6Z" transform="translate(15.798 1.105)" fill="#fff"/>
      <path id="パス_21" data-name="パス 21" d="M37.916,0c-.135.775-.267,1.476-.4,2.105s-.214.969-.239,1.022h13.71V9.262a29.381,29.381,0,0,1-2.3,9.54,22.309,22.309,0,0,1-4.55,6.756,31.625,31.625,0,0,1-5.533,4.45,30.266,30.266,0,0,1-5.253,2.666,31.186,31.186,0,0,1-3.969,1.264,10.933,10.933,0,0,1-1.565.3v-6.5q.041,0,1.4-.34a25.682,25.682,0,0,0,3.467-1.222,24.278,24.278,0,0,0,4.39-2.468,18.762,18.762,0,0,0,4.21-4.108H33.867V13.632h9.821A21.325,21.325,0,0,0,44.45,9.1H35.028a27.785,27.785,0,0,1-4.81,6.835,40.257,40.257,0,0,1-3.809,3.309,9.1,9.1,0,0,1-1.562,1.042V12.549a10.673,10.673,0,0,0,.9-.741,14.07,14.07,0,0,0,2-2.306,22.155,22.155,0,0,0,2.205-3.909A24.416,24.416,0,0,0,31.621,0Z" transform="translate(31.823 0.001)" fill="#fff"/>
      <path id="パス_22" data-name="パス 22" d="M36.767,31.559a53.711,53.711,0,0,0,2.247-5.453,43.771,43.771,0,0,0,1.542-6.074,41.369,41.369,0,0,0,.664-7.677V.967h6.053V12.355a52.63,52.63,0,0,1-.983,10.663,39.593,39.593,0,0,1-1.825,6.436,13.7,13.7,0,0,1-.962,2.105Zm27.784-6.215a19.66,19.66,0,0,1-4.491,3.969,20.547,20.547,0,0,1-4.409,2.126,19.791,19.791,0,0,1-3.508.862,9.261,9.261,0,0,1-1.464.139V.527h6.094V23.741a15.314,15.314,0,0,0,2.6-1.384,16.268,16.268,0,0,0,2.527-2.044q1.2-1.184,2.646-2.746Z" transform="translate(47.09 0.676)" fill="#fff"/>
      <path id="パス_23" data-name="パス 23" d="M0,27.269V20.853H24.575v5.893a27.391,27.391,0,0,1-1.843,10.145,24.636,24.636,0,0,1-4.21,7,20.163,20.163,0,0,1-5.17,4.27,28.444,28.444,0,0,1-5.173,2.306,25.726,25.726,0,0,1-3.989,1,11.408,11.408,0,0,1-1.583.182V45.23a27.086,27.086,0,0,0,5.572-1.382,16.66,16.66,0,0,0,4.71-2.867,14.452,14.452,0,0,0,3.829-5.273A22.9,22.9,0,0,0,18.4,27.269Z" transform="translate(0 26.709)" fill="#fff"/>
      <path id="パス_24" data-name="パス 24" d="M25.562,51.328V36.494a26.358,26.358,0,0,1-3.989,6.614,32.478,32.478,0,0,1-4.411,4.411,24.687,24.687,0,0,1-3.446,2.406q-1.345.722-1.384.721V44.513q.041,0,1.063-.643a22.284,22.284,0,0,0,2.666-2.085A22.628,22.628,0,0,0,19.447,37.9a31.573,31.573,0,0,0,3.268-6.053H12.331V26.632H25.562V22.383h5.332v4.249h3.889v5.212H30.894V51.328Z" transform="translate(15.793 28.668)" fill="#fff"/>
      <rect id="長方形_109" data-name="長方形 109" width="18.522" height="6.295" transform="translate(53.931 59.188)" fill="#fff"/>
      <path id="パス_25" data-name="パス 25" d="M46.649,20.062c-.107.748-.239,1.471-.4,2.164s-.319,1.364-.481,2h13.19v6.135a27.241,27.241,0,0,1-2.283,9.2,22.337,22.337,0,0,1-4.432,6.555A26.135,26.135,0,0,1,46.95,50.25,37.82,37.82,0,0,1,41.9,52.736,28.408,28.408,0,0,1,38.069,54a10.355,10.355,0,0,1-1.524.3v-6.5a10.5,10.5,0,0,0,1.585-.381,23.151,23.151,0,0,0,3.788-1.5,20.382,20.382,0,0,0,4.689-3.289,18,18,0,0,0,3.95-5.091A21.342,21.342,0,0,0,52.583,30.2H43.321a37.1,37.1,0,0,1-4.53,5.855,29.873,29.873,0,0,1-3.67,3.287,8.645,8.645,0,0,1-1.542,1V32.611a10.674,10.674,0,0,0,.9-.741,12.626,12.626,0,0,0,1.984-2.386,28.132,28.132,0,0,0,2.185-3.909,22.818,22.818,0,0,0,1.665-5.513Z" transform="translate(43.008 25.696)" fill="#fff"/>
      <path id="パス_26" data-name="パス 26" d="M46.586,20.273H52.8v18.8H46.586ZM52.359,47.3a18.648,18.648,0,0,0,3.608-1.184,9.78,9.78,0,0,0,2.867-2.064A12.517,12.517,0,0,0,61.2,40.46a13.589,13.589,0,0,0,1.063-5.513V20.273h6.213V34.947a21.254,21.254,0,0,1-1.6,8.519,15.555,15.555,0,0,1-4.128,5.675,18.759,18.759,0,0,1-4.872,3.106A26.224,26.224,0,0,1,54,53.549c-1.042.242-1.592.36-1.644.36Z" transform="translate(59.666 25.966)" fill="#fff"/>
      <path id="パス_27" data-name="パス 27" d="M58.121,27.269V20.853H82.7v5.893a27.392,27.392,0,0,1-1.843,10.145,24.636,24.636,0,0,1-4.21,7,20.162,20.162,0,0,1-5.17,4.27A28.444,28.444,0,0,1,66.3,50.462a25.726,25.726,0,0,1-3.989,1,11.408,11.408,0,0,1-1.583.182V45.23A27.086,27.086,0,0,0,66.3,43.848a16.66,16.66,0,0,0,4.71-2.867,14.452,14.452,0,0,0,3.829-5.273,22.9,22.9,0,0,0,1.683-8.439Z" transform="translate(74.439 26.709)" fill="#fff"/>
      <path id="パス_28" data-name="パス 28" d="M70.818,53.728v-33.6h6.334V30.957H93.991V37.25H77.152V53.728Z" transform="translate(90.702 25.786)" fill="#fff"/>
      <path id="パス_29" data-name="パス 29" d="M81.658,35.087a2.773,2.773,0,1,1,5.545,0,2.772,2.772,0,0,1-5.545,0" transform="translate(104.584 41.308)" fill="#fff"/>
      <path id="パス_30" data-name="パス 30" d="M85.313,40.382v-8.5c0-4.559,2.627-7.515,7.225-7.515,4.518,0,7.187,2.956,7.187,7.515v.369H95.166v-.944a2.654,2.654,0,1,0-5.3,0v9.732a2.654,2.654,0,1,0,5.3,0v-.862h4.559v.205c0,4.723-2.668,7.638-7.187,7.638-4.6,0-7.225-2.915-7.225-7.638" transform="translate(109.266 31.208)" fill="#fff"/>
      <path id="パス_31" data-name="パス 31" d="M92.921,40.382v-8.5c0-4.557,2.627-7.515,7.228-7.515,4.516,0,7.184,2.958,7.184,7.515v8.5c0,4.723-2.668,7.638-7.184,7.638-4.6,0-7.228-2.915-7.228-7.638m7.228,3.492a2.516,2.516,0,0,0,2.627-2.835V31.306a2.655,2.655,0,1,0-5.3,0v9.732a2.509,2.509,0,0,0,2.671,2.835" transform="translate(119.01 31.208)" fill="#fff"/>
      <path id="パス_32" data-name="パス 32" d="M100.742,24.612h4.313V26.5a4.262,4.262,0,0,1,3.9-2.135,4.7,4.7,0,0,1,4.473,2.586,5.265,5.265,0,0,1,4.644-2.586c3.2,0,5.173,2.012,5.173,6.735V47.65h-4.6V31.019c0-1.891-1.029-2.548-2.178-2.548a2.176,2.176,0,0,0-2.176,2.466V47.65h-4.6V31.019c0-1.847-.988-2.548-2.219-2.548a2.153,2.153,0,0,0-2.176,2.466V47.65h-4.559Z" transform="translate(129.027 31.208)" fill="#fff"/>
    </g>
  </g>
</svg>
