<svg xmlns="http://www.w3.org/2000/svg" xmlns:xlink="http://www.w3.org/1999/xlink" width="255.112" height="24" viewBox="0 0 255.112 24">
  <defs>
    <clipPath id="clip-path">
      <rect id="長方形_108" data-name="長方形 108" width="255.112" height="24" fill="none"/>
    </clipPath>
  </defs>
  <g id="グループ_46" data-name="グループ 46" clip-path="url(#clip-path)">
    <path id="パス_5" data-name="パス 5" d="M17.787,8.2a29.988,29.988,0,0,1-4.131,7.334A20.439,20.439,0,0,1,9.048,19.9a17.639,17.639,0,0,1-4.3,2.15A19.258,19.258,0,0,1,0,22.81V.527H4.468V17.415A8.5,8.5,0,0,0,7.32,15.954a15.316,15.316,0,0,0,3.147-3.05A21.254,21.254,0,0,0,13.151,8.2Z" transform="translate(0 0.316)" fill="#0a1c0f"/>
    <path id="パス_6" data-name="パス 6" d="M11.755.861h8.766V5.244H11.755ZM30.44,5.581a25.532,25.532,0,0,1-3.764,8.373,21.043,21.043,0,0,1-4.9,4.987,18.614,18.614,0,0,1-4.82,2.487,17.87,17.87,0,0,1-3.723.857,14.468,14.468,0,0,1-1.474.1V17.8a8.741,8.741,0,0,0,1.151-.042,14.009,14.009,0,0,0,2.881-.575,11.867,11.867,0,0,0,3.7-1.939,17.489,17.489,0,0,0,3.582-3.638,21.4,21.4,0,0,0,2.908-6.028Z" transform="translate(7.035 0.516)" fill="#0a1c0f"/>
    <path id="パス_7" data-name="パス 7" d="M33.426,0c-.094.543-.187,1.034-.281,1.475s-.15.679-.168.716h9.609v4.3a20.592,20.592,0,0,1-1.614,6.687,15.636,15.636,0,0,1-3.189,4.735A22.165,22.165,0,0,1,33.9,21.032,21.212,21.212,0,0,1,30.223,22.9a21.857,21.857,0,0,1-2.781.886,7.661,7.661,0,0,1-1.1.211V19.444q.029,0,.985-.238a18,18,0,0,0,2.43-.857,17.016,17.016,0,0,0,3.077-1.73,13.15,13.15,0,0,0,2.951-2.879h-5.2V9.554h6.883a14.946,14.946,0,0,0,.534-3.176H31.4a19.474,19.474,0,0,1-3.371,4.791,28.214,28.214,0,0,1-2.67,2.319,6.378,6.378,0,0,1-1.095.731V8.795a7.48,7.48,0,0,0,.631-.52A9.861,9.861,0,0,0,26.3,6.659a15.528,15.528,0,0,0,1.546-2.74A17.112,17.112,0,0,0,29.015,0Z" transform="translate(14.524 0.001)" fill="#0a1c0f"/>
    <path id="パス_8" data-name="パス 8" d="M36.187,22.276a37.646,37.646,0,0,0,1.575-3.822A30.678,30.678,0,0,0,38.842,14.2a29,29,0,0,0,.465-5.381V.836H43.55V8.817a36.886,36.886,0,0,1-.689,7.473A27.749,27.749,0,0,1,41.582,20.8a9.6,9.6,0,0,1-.675,1.475ZM55.66,17.92A13.779,13.779,0,0,1,52.513,20.7a14.4,14.4,0,0,1-3.09,1.49,13.871,13.871,0,0,1-2.458.6,6.49,6.49,0,0,1-1.026.1V.527h4.271V16.8a10.733,10.733,0,0,0,1.826-.97,11.4,11.4,0,0,0,1.771-1.432q.842-.83,1.854-1.925Z" transform="translate(21.658 0.316)" fill="#0a1c0f"/>
    <path id="パス_9" data-name="パス 9" d="M48.986,5.288V.791H66.21V4.922a19.2,19.2,0,0,1-1.292,7.11,17.267,17.267,0,0,1-2.951,4.9,14.131,14.131,0,0,1-3.624,2.992,19.935,19.935,0,0,1-3.625,1.616,18.03,18.03,0,0,1-2.8.7,8,8,0,0,1-1.109.128v-4.5a18.983,18.983,0,0,0,3.905-.969,11.677,11.677,0,0,0,3.3-2.009A10.129,10.129,0,0,0,60.7,11.2a16.052,16.052,0,0,0,1.18-5.914Z" transform="translate(29.319 0.474)" fill="#0a1c0f"/>
    <path id="パス_10" data-name="パス 10" d="M70.589,22.608v-10.4a18.473,18.473,0,0,1-2.8,4.636,22.758,22.758,0,0,1-3.09,3.092,17.206,17.206,0,0,1-2.417,1.686c-.627.337-.951.505-.969.505v-4.3c.018,0,.267-.15.745-.451A15.757,15.757,0,0,0,63.93,15.92a15.861,15.861,0,0,0,2.375-2.725,22.13,22.13,0,0,0,2.289-4.242H61.318V5.3h9.271V2.321h3.737V5.3h2.725V8.952H74.327V22.608Z" transform="translate(36.699 1.39)" fill="#0a1c0f"/>
    <rect id="長方形_107" data-name="長方形 107" width="12.981" height="4.412" transform="translate(116.101 9.414)" fill="#0a1c0f"/>
    <path id="パス_11" data-name="パス 11" d="M91.724,0c-.075.524-.168,1.031-.281,1.517s-.224.956-.337,1.405h9.244v4.3a19.092,19.092,0,0,1-1.6,6.448,15.655,15.655,0,0,1-3.106,4.594,18.317,18.317,0,0,1-3.709,2.893A26.508,26.508,0,0,1,88.395,22.9a19.909,19.909,0,0,1-2.684.886A7.256,7.256,0,0,1,84.643,24V19.444a7.356,7.356,0,0,0,1.111-.267,16.226,16.226,0,0,0,2.655-1.053A14.286,14.286,0,0,0,91.7,15.819a12.615,12.615,0,0,0,2.769-3.568,14.958,14.958,0,0,0,1.419-5.142H89.392a26,26,0,0,1-3.175,4.1,20.935,20.935,0,0,1-2.572,2.3,6.059,6.059,0,0,1-1.081.7V8.795a7.479,7.479,0,0,0,.631-.52A8.849,8.849,0,0,0,84.587,6.6a19.721,19.721,0,0,0,1.531-2.74A15.992,15.992,0,0,0,87.285,0Z" transform="translate(49.416 0.001)" fill="#0a1c0f"/>
    <path id="パス_12" data-name="パス 12" d="M95.572.211h4.356V13.389H95.572ZM99.618,19.15a13.07,13.07,0,0,0,2.529-.83,6.854,6.854,0,0,0,2.009-1.447,8.773,8.773,0,0,0,1.658-2.514,9.524,9.524,0,0,0,.745-3.864V.211h4.354V10.5a14.9,14.9,0,0,1-1.124,5.97,10.9,10.9,0,0,1-2.893,3.977,13.148,13.148,0,0,1-3.414,2.177,18.38,18.38,0,0,1-2.711.913c-.731.169-1.116.253-1.153.253Z" transform="translate(57.201 0.127)" fill="#0a1c0f"/>
    <path id="パス_13" data-name="パス 13" d="M107.107,5.288V.791h17.224V4.922a19.2,19.2,0,0,1-1.292,7.11,17.267,17.267,0,0,1-2.951,4.9,14.131,14.131,0,0,1-3.624,2.992,19.935,19.935,0,0,1-3.625,1.616,18.03,18.03,0,0,1-2.8.7,8,8,0,0,1-1.109.128v-4.5a18.984,18.984,0,0,0,3.905-.969,11.677,11.677,0,0,0,3.3-2.009,10.129,10.129,0,0,0,2.684-3.7A16.052,16.052,0,0,0,120,5.288Z" transform="translate(64.104 0.474)" fill="#0a1c0f"/>
    <path id="パス_14" data-name="パス 14" d="M119.8,23.617V.071h4.439V7.657h11.8v4.41h-11.8V23.617Z" transform="translate(71.704 0.043)" fill="#0a1c0f"/>
    <path id="パス_15" data-name="パス 15" d="M130.644,14.177a1.943,1.943,0,1,1,3.886,0,1.943,1.943,0,0,1-3.886,0" transform="translate(78.191 7.296)" fill="#367f4c"/>
    <path id="パス_16" data-name="パス 16" d="M134.3,15.529V9.571c0-3.2,1.841-5.267,5.066-5.267,3.165,0,5.037,2.072,5.037,5.267V9.83h-3.2V9.168a1.86,1.86,0,1,0-3.712,0v6.821a1.86,1.86,0,1,0,3.712,0v-.6h3.2v.144c0,3.311-1.872,5.353-5.037,5.353-3.224,0-5.066-2.043-5.066-5.353" transform="translate(80.378 2.577)" fill="#367f4c"/>
    <path id="パス_17" data-name="パス 17" d="M141.906,15.528V9.57c0-3.194,1.841-5.267,5.066-5.267,3.165,0,5.037,2.073,5.037,5.267v5.958c0,3.311-1.872,5.353-5.037,5.353-3.224,0-5.066-2.043-5.066-5.353m5.066,2.447a1.763,1.763,0,0,0,1.841-1.987V9.167a1.86,1.86,0,1,0-3.712,0v6.821a1.758,1.758,0,0,0,1.87,1.987" transform="translate(84.932 2.576)" fill="#367f4c"/>
    <path id="パス_18" data-name="パス 18" d="M149.728,4.477h3.023V5.8a2.984,2.984,0,0,1,2.733-1.5,3.3,3.3,0,0,1,3.136,1.813A3.685,3.685,0,0,1,161.873,4.3c2.244,0,3.625,1.41,3.625,4.72v11.6h-3.223V8.967c0-1.325-.721-1.786-1.525-1.786a1.526,1.526,0,0,0-1.527,1.728V20.623H156V8.967c0-1.295-.691-1.786-1.555-1.786a1.509,1.509,0,0,0-1.525,1.728V20.623h-3.194Z" transform="translate(89.613 2.577)" fill="#367f4c"/>
  </g>
</svg>
